<svg width="229" height="46" viewBox="0 0 229 46" fill="none" xmlns="http://www.w3.org/2000/svg">
<g filter="url(#filter0_d)">
<path d="M4.60343 37V32.2526C6.78146 30.4489 8.89143 28.6622 10.9333 26.8926C13.0093 25.1229 14.847 23.3703 16.4465 21.6347C18.08 19.899 19.3732 18.2145 20.3261 16.581C21.313 14.9134 21.8065 13.2969 21.8065 11.7314C21.8065 10.2681 21.3981 8.97485 20.5813 7.85181C19.7986 6.72876 18.4884 6.16723 16.6507 6.16723C14.7789 6.16723 13.3666 6.77981 12.4137 8.00495C11.4608 9.23009 10.9844 10.7105 10.9844 12.4461H4.65448C4.72254 9.82565 5.30108 7.64762 6.3901 5.912C7.47911 4.14235 8.92546 2.83212 10.7291 1.98133C12.5328 1.0965 14.5577 0.654092 16.8038 0.654092C20.4452 0.654092 23.2698 1.65803 25.2777 3.6659C27.3196 5.63974 28.3406 8.20914 28.3406 11.3741C28.3406 13.3479 27.8811 15.2707 26.9623 17.1425C26.0775 19.0142 24.9034 20.8179 23.44 22.5535C21.9766 24.2891 20.3942 25.9227 18.6926 27.4541C16.991 28.9515 15.3404 30.3468 13.741 31.64H29.2084V37H4.60343ZM35.2723 37V1.26666H48.3915C51.2502 1.26666 53.5984 1.76012 55.4361 2.74704C57.3078 3.69993 58.7031 5.01016 59.622 6.67771C60.5409 8.31124 61.0003 10.1319 61.0003 12.1398C61.0003 14.3178 60.4217 16.3087 59.2647 18.1124C58.1416 19.9161 56.372 21.2263 53.9557 22.043L61.3576 37H53.8536L47.2174 22.9109H41.8064V37H35.2723ZM41.8064 18.1124H47.9831C50.1612 18.1124 51.7607 17.5849 52.7816 16.5299C53.8026 15.4749 54.313 14.0796 54.313 12.344C54.313 10.6424 53.8026 9.28114 52.7816 8.26019C51.7947 7.23923 50.1782 6.72876 47.9321 6.72876H41.8064V18.1124ZM77.0572 37.6126C73.8922 37.6126 71.4419 36.6257 69.7063 34.6518C68.0047 32.678 67.1539 29.7853 67.1539 25.9737V11.6804H73.637V25.3611C73.637 27.5392 74.0794 29.2067 74.9642 30.3638C75.849 31.5209 77.2443 32.0994 79.1501 32.0994C80.9538 32.0994 82.4342 31.4528 83.5913 30.1596C84.7824 28.8664 85.3779 27.0627 85.3779 24.7486V11.6804H91.912V37H86.1436L85.6332 32.712C84.8504 34.2094 83.7104 35.4005 82.213 36.2853C80.7496 37.1702 79.031 37.6126 77.0572 37.6126ZM110.897 37.6126C108.514 37.6126 106.387 37.034 104.516 35.877C102.644 34.7199 101.163 33.1374 100.074 31.1295C98.9854 29.1216 98.4409 26.8415 98.4409 24.2891C98.4409 21.7368 98.9854 19.4736 100.074 17.4998C101.163 15.4919 102.644 13.9265 104.516 12.8034C106.387 11.6463 108.514 11.0678 110.897 11.0678C112.802 11.0678 114.47 11.4251 115.899 12.1398C117.329 12.8545 118.486 13.8584 119.37 15.1516V0.24571H125.905V37H120.085L119.37 33.3756C118.554 34.4987 117.465 35.4856 116.103 36.3364C114.776 37.1872 113.041 37.6126 110.897 37.6126ZM112.275 31.8952C114.385 31.8952 116.103 31.1976 117.431 29.8023C118.792 28.373 119.473 26.5523 119.473 24.3402C119.473 22.1281 118.792 20.3244 117.431 18.9291C116.103 17.4998 114.385 16.7851 112.275 16.7851C110.199 16.7851 108.48 17.4828 107.119 18.8781C105.758 20.2734 105.077 22.0771 105.077 24.2891C105.077 26.5012 105.758 28.3219 107.119 29.7512C108.48 31.1806 110.199 31.8952 112.275 31.8952ZM144.835 37.6126C142.453 37.6126 140.326 37.034 138.454 35.877C136.583 34.7199 135.102 33.1374 134.013 31.1295C132.924 29.1216 132.38 26.8415 132.38 24.2891C132.38 21.7368 132.924 19.4736 134.013 17.4998C135.102 15.4919 136.583 13.9265 138.454 12.8034C140.326 11.6463 142.453 11.0678 144.835 11.0678C146.741 11.0678 148.409 11.4251 149.838 12.1398C151.267 12.8545 152.424 13.8584 153.309 15.1516V0.24571H159.843V37H154.024L153.309 33.3756C152.492 34.4987 151.403 35.4856 150.042 36.3364C148.715 37.1872 146.979 37.6126 144.835 37.6126ZM146.214 31.8952C148.323 31.8952 150.042 31.1976 151.369 29.8023C152.731 28.373 153.411 26.5523 153.411 24.3402C153.411 22.1281 152.731 20.3244 151.369 18.9291C150.042 17.4998 148.323 16.7851 146.214 16.7851C144.138 16.7851 142.419 17.4828 141.058 18.8781C139.696 20.2734 139.016 22.0771 139.016 24.2891C139.016 26.5012 139.696 28.3219 141.058 29.7512C142.419 31.1806 144.138 31.8952 146.214 31.8952ZM179.438 37.6126C176.885 37.6126 174.622 37.0681 172.648 35.979C170.674 34.89 169.126 33.3586 168.003 31.3848C166.88 29.4109 166.318 27.1308 166.318 24.5444C166.318 21.9239 166.863 19.5928 167.952 17.5509C169.075 15.509 170.606 13.9265 172.546 12.8034C174.52 11.6463 176.834 11.0678 179.489 11.0678C181.973 11.0678 184.168 11.6123 186.074 12.7013C187.98 13.7903 189.46 15.2877 190.515 17.1935C191.604 19.0653 192.148 21.1582 192.148 23.4724C192.148 23.8467 192.131 24.2381 192.097 24.6465C192.097 25.0549 192.08 25.4803 192.046 25.9227H172.801C172.937 27.8965 173.618 29.445 174.843 30.568C176.102 31.691 177.617 32.2526 179.386 32.2526C180.714 32.2526 181.82 31.9633 182.705 31.3848C183.623 30.7722 184.304 29.9895 184.746 29.0366H191.383C190.906 30.6361 190.106 32.0994 188.983 33.4267C187.894 34.7199 186.533 35.7408 184.9 36.4895C183.3 37.2382 181.479 37.6126 179.438 37.6126ZM179.489 16.3768C177.889 16.3768 176.477 16.8362 175.252 17.755C174.026 18.6399 173.244 20.0011 172.903 21.8389H185.512C185.41 20.1713 184.798 18.8441 183.674 17.8571C182.551 16.8702 181.156 16.3768 179.489 16.3768ZM198.435 37V1.26666H211.554C214.413 1.26666 216.761 1.76012 218.599 2.74704C220.471 3.69993 221.866 5.01016 222.785 6.67771C223.704 8.31124 224.163 10.1319 224.163 12.1398C224.163 14.3178 223.585 16.3087 222.428 18.1124C221.305 19.9161 219.535 21.2263 217.119 22.043L224.521 37H217.017L210.38 22.9109H204.969V37H198.435ZM204.969 18.1124H211.146C213.324 18.1124 214.924 17.5849 215.945 16.5299C216.966 15.4749 217.476 14.0796 217.476 12.344C217.476 10.6424 216.966 9.28114 215.945 8.26019C214.958 7.23923 213.341 6.72876 211.095 6.72876H204.969V18.1124Z" fill="white"/>
</g>
<defs>
<filter id="filter0_d" x="0.603394" y="0.245728" width="227.917" height="45.3669" filterUnits="userSpaceOnUse" color-interpolation-filters="sRGB">
<feFlood flood-opacity="0" result="BackgroundImageFix"/>
<feColorMatrix in="SourceAlpha" type="matrix" values="0 0 0 0 0 0 0 0 0 0 0 0 0 0 0 0 0 0 127 0" result="hardAlpha"/>
<feOffset dy="4"/>
<feGaussianBlur stdDeviation="2"/>
<feComposite in2="hardAlpha" operator="out"/>
<feColorMatrix type="matrix" values="0 0 0 0 0 0 0 0 0 0 0 0 0 0 0 0 0 0 0.25 0"/>
<feBlend mode="normal" in2="BackgroundImageFix" result="effect1_dropShadow"/>
<feBlend mode="normal" in="SourceGraphic" in2="effect1_dropShadow" result="shape"/>
</filter>
</defs>
</svg>
